<svg xmlns="http://www.w3.org/2000/svg" version="1.1" xmlns:xlink="http://www.w3.org/1999/xlink" xmlns:svgjs="http://svgjs.com/svgjs" width="512" height="512" x="0" y="0" viewBox="0 0 55 55" style="enable-background:new 0 0 512 512" xml:space="preserve" class=""><g><g xmlns="http://www.w3.org/2000/svg"><g><path d="m15.7130404 49.6541595-10.3671966-10.3671951c-1.8516998-1.8516998-1.8516998-4.8538971 0-6.7055969l27.2355275-27.2355285c1.8516998-1.8517001 4.8538971-1.8517001 6.7055969 0l10.3671989 10.367197c1.8516998 1.8516998 1.8516998 4.853899 0 6.7055988l-27.2355289 27.2355247c-1.8516998 1.8516999-4.8538971 1.8516999-6.7055978 0z" fill="#626681" data-original="#626681"></path></g><g><path d="m49.6541634 15.7130299-.0000076-.0000067c-1.405468-1.4054689-3.684185-1.4054689-5.089653 0l-17.9539758 17.9539766c-4.1330414 4.1330414-10.8340244 4.1330414-14.9670658 0l-1.0856543-1.0856552c-1.4392452-1.4392452-3.7727213-1.4392452-5.211966 0l-.0000062.0000038c-1.851701 1.8517036-1.851701 4.8539047 0 6.7056046l10.3672028 10.3672028c1.8516998 1.8516998 4.8539009 1.8516998 6.7056026 0l27.2355232-27.2355232c1.8516999-1.8517018 1.8516999-4.8539029.0000001-6.7056027z" fill="#4d5471" data-original="#4d5471"></path></g><g><path d="m33.8808975 27.1099472v1.7677193c0 .5190983.4782333.9147377.9870605.8119926 2.8131485-.5680389 5.0241585-2.7775879 5.5934296-5.5836506.103241-.5088978-.2926483-.9874344-.8119164-.9874344h-1.7728844c.0346985-.3234291.0346146-.6465988-.0002594-.9700279h1.7706528c.5200157 0 .9161873-.479866.8115158-.9892426-.5762291-2.8042412-2.7856064-5.0123863-5.5901909-5.5812502-.5088921-.10322-.9874077.2926645-.9874077.8119192v1.77005c-.3201027-.0340519-.6399078-.0338783-.9600143.0002594v-1.7703094c0-.5192547-.4785118-.9151392-.9874039-.8119183-2.8045692.5688648-5.0138893 2.7770023-5.5901699 5.5812359-.1046791.5093803.2914906.9892559.8115158.9892559h1.7730465c-.0348721.3234291-.0349579.6465988-.0002155.969986h-1.7750645c-.5194092 0-.9153805.4787903-.8118668.9877796.5704689 2.8050613 2.7863617 5.0139961 5.592905 5.5828037.5088711.1031342.987299-.2927189.987299-.8119373v-1.7674465c.3201028.0341378.639866.0342675.9599687.0002156z" fill="#434a60" data-original="#434a60"></path></g><g><g><path d="m11.6830845 35.9098129-1.7975569-1.7975578c-.604002-.6040001-.604002-1.5832825 0-2.1872845l.0000019-.0000019c.604002-.604002 1.5832815-.604002 2.1872835 0l1.7975578 1.7975578c.604002.6040001.604002 1.5832825 0 2.1872826l-.0000019.0000038c-.6040019.6040001-1.5832824.6040001-2.1872844 0z" fill="#434a60" data-original="#434a60"></path></g><g><path d="m16.6389713 40.8656998-1.7975578-1.7975578c-.604002-.6040039-.604002-1.5832825 0-2.1872864h.0000019c.604002-.6040039 1.5832825-.6040039 2.1872845 0l1.7975559 1.7975578c.604002.6040001.604002 1.5832825 0 2.1872826l-.0000019.0000038c-.604002.6040001-1.5832806.6040001-2.1872826 0z" fill="#434a60" data-original="#434a60"></path></g><g><path d="m12.7974815 44.7071877-1.7975578-1.7975578c-.604001-.6040001-.604001-1.5832825 0-2.1872826l.0000029-.0000038c.604001-.6040001 1.5832815-.6040001 2.1872835 0l1.7975578 1.7975578c.604001.6040039.604001 1.5832825 0 2.1872826l-.0000029.0000038c-.604001.604-1.5832815.604-2.1872835 0z" fill="#434a60" data-original="#434a60"></path></g><g><path d="m21.5948563 45.8215828-1.7975578-1.797554c-.6040001-.6040039-.6040001-1.5832825 0-2.1872864h.0000038c.6040001-.6040039 1.5832806-.6040039 2.1872826 0l1.7975578 1.7975578c.604002.6040001.604002 1.5832787 0 2.1872826h-.0000019c-.6040021.6040039-1.5832825.6040039-2.1872845 0z" fill="#434a60" data-original="#434a60"></path></g></g><g><g><path d="m15.5245743 32.068325-1.7975578-1.7975597c-.604002-.604002-.604002-1.5832806 0-2.1872826l.0000019-.0000019c.604002-.604002 1.5832825-.604002 2.1872835 0l1.7975588 1.7975559c.6040001.604002.6040001 1.5832825 0 2.1872845l-.0000038.0000038c-.6040001.6040001-1.5832806.6040001-2.1872826 0z" fill="#434a60" data-original="#434a60"></path></g><g><path d="m20.4804592 37.0242081-1.7975578-1.7975578c-.6040001-.6040001-.6040001-1.5832787 0-2.1872826h.0000038c.6040001-.6040039 1.5832806-.6040039 2.1872826 0l1.7975578 1.797554c.604002.6040039.604002 1.5832825 0 2.1872864h-.0000019c-.604002.6040039-1.5832825.6040039-2.1872845 0z" fill="#434a60" data-original="#434a60"></path></g><g><path d="m25.4363461 41.9800949-1.7975578-1.7975578c-.604002-.6040001-.604002-1.5832825 0-2.1872826l.0000019-.0000038c.604002-.6040001 1.5832825-.6040001 2.1872845 0l1.7975578 1.7975578c.604002.6040039.604002 1.5832825 0 2.1872864h-.0000019c-.6040021.6040039-1.5832825.6040039-2.1872845 0z" fill="#434a60" data-original="#434a60"></path></g></g><g><g><path d="m19.3660622 28.2268353-1.7975559-1.7975578c-.604002-.604002-.604002-1.5832825 0-2.1872845l.0000019-.0000019c.604002-.604002 1.5832806-.604002 2.1872826 0l1.7975578 1.7975578c.604002.604002.604002 1.5832825 0 2.1872826l-.0000019.0000038c-.6040021.604-1.5832825.604-2.1872845 0z" fill="#434a60" data-original="#434a60"></path></g><g><path d="m24.321949 33.1827202-1.7975578-1.7975578c-.604002-.604002-.604002-1.5832825 0-2.1872826l.0000019-.0000038c.604002-.6040001 1.5832825-.6040001 2.1872845 0l1.7975578 1.7975578c.604002.604002.604002 1.5832825 0 2.1872826l-.0000019.0000038c-.604002.6040001-1.5832825.6040001-2.1872845 0z" fill="#434a60" data-original="#434a60"></path></g><g><path d="m29.2778358 38.138607-1.7975578-1.7975578c-.604002-.6040039-.604002-1.5832825 0-2.1872826l.0000019-.0000038c.604002-.6040001 1.5832825-.6040001 2.1872826 0l1.7975578 1.7975578c.604002.6040001.604002 1.5832825 0 2.1872826l-.0000019.0000038c-.604002.6040001-1.5832825.6040001-2.1872826 0z" fill="#434a60" data-original="#434a60"></path></g><g><path d="m36.1598473 11.4330482-1.797554-1.7975578c-.6040039-.604002-.6040039-1.5832815 0-2.1872835v-.0000024c.6040039-.6040015 1.5832825-.6040015 2.1872826 0l1.7975578 1.7975583c.6040039.604001.6040039 1.5832815 0 2.1872835v.0000019c-.604004.604002-1.5832825.604002-2.1872864 0z" fill="#434a60" data-original="#434a60"></path></g><g><path d="m46.0716209 21.34482-1.7975578-1.7975578c-.6040001-.604002-.6040001-1.5832825 0-2.1872826l.0000038-.0000038c.6040001-.6040001 1.5832825-.6040001 2.1872826 0l1.7975578 1.7975578c.6040001.604002.6040001 1.5832825 0 2.1872845l-.0000038.0000019c-.6040001.604002-1.5832825.604002-2.1872826 0z" fill="#434a60" data-original="#434a60"></path></g></g><g><path d="m33.0590172 15.2906513v4.9374638c0 .4534988-.36763.8211308-.8211288.8211308h-4.9449596c-.5200214 0-.9161892-.4798717-.8115177-.9892483.5762463-2.8042564 2.7856026-5.0123959 5.5902023-5.5812645.5088882-.103221.9874038.2926645.9874038.8119182z" fill="#f7cc6d" data-original="#f7cc6d" class=""></path></g><g><path d="m27.2906723 22.0192165h4.947216c.4534988 0 .8211288.3676319.8211288.8211288v4.9375305c0 .5192204-.4784279.9150734-.9873009.8119354-2.8065548-.5688248-5.0224228-2.7777367-5.5929108-5.5828114-.1035155-.5089892.2924558-.9877833.8118669-.9877833z" fill="#fc4a32" data-original="#fc4a32"></path></g><g><path d="m33.054 21.054h.97v.96h-.97z" fill="#d5d3d4" transform="matrix(.707 -.707 .707 .707 -5.404 30.023)" data-original="#d5d3d4"></path></g><g><path d="m40.7290001 22.0192165c-.2200317 3.6000366-3.1000366 6.4800415-6.710022 6.7000122v-6.7000122z" fill="#f7cc6d" data-original="#f7cc6d" class=""></path></g><g><path d="m40.7290001 22.0192165c-.2200317 3.6000366-3.1000366 6.4800415-6.710022 6.7000122v-6.7000122z" fill="#f7cc6d" data-original="#f7cc6d" class=""></path></g><g><path d="m40.7290001 22.0192165c-.2200317 3.6000366-3.1000366 6.4800415-6.710022 6.7000122v-6.7000122z" fill="#f7cc6d" data-original="#f7cc6d" class=""></path></g><g><path d="m40.5994835 23.0066528c-.5692787 2.8060818-2.7802925 5.0156364-5.5934448 5.5836716-.508831.1027412-.9870605-.2928963-.9870605-.8119946v-4.9379845c0-.4534969.3676338-.8211288.8211288-.8211288h4.9474602c.519268 0 .9151573.4785366.8119163.9874363z" fill="#f7cc6d" data-original="#f7cc6d" class=""></path></g><g><path d="m39.7850685 21.0492458h-4.9449615c-.453495 0-.8211288-.3676319-.8211288-.8211308v-4.9374638c0-.5192537.4785156-.9151392.9874077-.8119183 2.8045959.5688686 5.0139542 2.7770081 5.5902023 5.5812645.1046714.5093767-.2914963.9892484-.8115197.9892484z" fill="#fc4a32" data-original="#fc4a32"></path></g><g><circle cx="33.54" cy="21.536" fill="#4d5471" r="4.521" data-original="#4d5471"></circle></g><g><g><path d="m11.6388903 35.2468987-1.7975569-1.7975578c-.604002-.6040001-.604002-1.5832806 0-2.1872826l.0000019-.0000019c.604002-.604002 1.5832815-.604002 2.1872835 0l1.7975578 1.7975559c.604002.6040039.604002 1.5832825 0 2.1872864h-.0000019c-.604002.6040039-1.5832824.6040039-2.1872844 0z" fill="#e7e7e7" data-original="#e7e7e7"></path></g><g><path d="m16.5947762 40.2027855-1.7975569-1.7975578c-.604002-.6040001-.604002-1.5832825 0-2.1872826l.0000019-.0000038c.604002-.6040001 1.5832815-.6040001 2.1872835 0l1.7975578 1.7975578c.604002.6040039.604002 1.5832825 0 2.1872864h-.0000019c-.604002.6040039-1.5832824.6040039-2.1872844 0z" fill="#e7e7e7" data-original="#e7e7e7"></path></g><g><path d="m12.7532873 44.0442734-1.7975578-1.7975578c-.604001-.6040001-.604001-1.5832787 0-2.1872826h.0000029c.604001-.6040039 1.5832815-.6040039 2.1872835 0l1.7975578 1.7975578c.604001.6040001.604001 1.5832787 0 2.1872826h-.0000029c-.604001.6040039-1.5832815.6040039-2.1872835 0z" fill="#e7e7e7" data-original="#e7e7e7"></path></g><g><path d="m21.550663 45.1586723-1.7975578-1.7975578c-.604002-.6040001-.604002-1.5832825 0-2.1872826l.0000019-.0000038c.604002-.6040001 1.5832825-.6040001 2.1872845 0l1.7975578 1.7975578c.6040001.6040001.6040001 1.5832825 0 2.1872826l-.0000038.0000038c-.6040001.6040001-1.5832806.6040001-2.1872826 0z" fill="#e7e7e7" data-original="#e7e7e7"></path></g></g><g><g><path d="m9.7557144 31.3668308c-.5096579.607626-.4857473 1.5111027.0856256 2.0824757l1.7975903 1.7975922c.571373.571373 1.4748507.5952835 2.0824776.0856247z" fill="#d5d3d4" data-original="#d5d3d4"></path></g><g><path d="m14.7115898 36.3227081c-.5096569.6076241-.4857035 1.5111465.0856695 2.0825195l1.7975473 1.7975464c.571373.571373 1.4748497.5952835 2.0824776.0856247z" fill="#d5d3d4" data-original="#d5d3d4"></path></g><g><path d="m12.7532873 44.0442734-1.7975578-1.7975578c-.604001-.6040001-.604001-1.5832787 0-2.1872826h.0000029c.604001-.6040039 1.5832815-.6040039 2.1872835 0l1.7975578 1.7975578c.604001.6040001.604001 1.5832787 0 2.1872826h-.0000029c-.604001.6040039-1.5832815.6040039-2.1872835 0z" fill="#e7e7e7" data-original="#e7e7e7"></path></g><g><path d="m19.6675091 41.2786255c-.5096569.6076279-.4857464 1.5111046.0856266 2.0824776l1.7975464 1.7975464c.571373.571373 1.4748516.5952835 2.0824776.0856247z" fill="#d5d3d4" data-original="#d5d3d4"></path></g></g><g><g><path d="m9.7557144 31.3668308c-.5096579.607626-.4857473 1.5111027.0856256 2.0824757l1.7975903 1.7975922c.571373.571373 1.4748507.5952835 2.0824776.0856247z" fill="#d5d3d4" data-original="#d5d3d4"></path></g><g><path d="m14.7115898 36.3227081c-.5096569.6076241-.4857035 1.5111465.0856695 2.0825195l1.7975473 1.7975464c.571373.571373 1.4748497.5952835 2.0824776.0856247z" fill="#d5d3d4" data-original="#d5d3d4"></path></g><g><path d="m10.7501259 40.3161926c-.3864393.599041-.3188972 1.4059715.2056503 1.9305191l1.7975464 1.7975464c.5245466.5245476 1.3314781.5920868 1.9304733.2056046z" fill="#d5d3d4" data-original="#d5d3d4"></path></g><g><path d="m19.6675091 41.2786255c-.5096569.6076279-.4857464 1.5111046.0856266 2.0824776l1.7975464 1.7975464c.571373.571373 1.4748516.5952835 2.0824776.0856247z" fill="#d5d3d4" data-original="#d5d3d4"></path></g></g><g><g><path d="m15.4803801 31.4054108-1.7975578-1.7975578c-.604002-.604002-.604002-1.5832825 0-2.1872826l.0000019-.0000038c.604002-.6040001 1.5832825-.6040001 2.1872835 0l1.7975578 1.7975578c.604002.604002.604002 1.5832825 0 2.1872845l-.0000019.0000019c-.604002.6040001-1.5832825.6040001-2.1872835 0z" fill="#e7e7e7" data-original="#e7e7e7"></path></g><g><path d="m20.4362659 36.3612976-1.7975578-1.7975578c-.604002-.6040039-.604002-1.5832825 0-2.1872826l.0000019-.0000038c.604002-.604002 1.5832825-.604002 2.1872845 0l1.7975578 1.7975578c.604002.6040001.604002 1.5832825 0 2.1872826l-.0000019.0000038c-.604002.6040001-1.5832825.6040001-2.1872845 0z" fill="#e7e7e7" data-original="#e7e7e7"></path></g><g><path d="m25.3921509 41.3171844-1.7975559-1.7975578c-.604002-.6040039-.604002-1.5832825 0-2.1872864h.0000019c.604002-.6040039 1.5832806-.6040039 2.1872826 0l1.7975578 1.7975578c.604002.6040001.604002 1.5832825 0 2.1872826l-.0000019.0000038c-.6040021.6040001-1.5832825.6040001-2.1872845 0z" fill="#e7e7e7" data-original="#e7e7e7"></path></g></g><g><g><path d="m13.5075579 27.6350975c-.4184637.6028366-.361969 1.4354916.1752663 1.9727268l1.7975893 1.7975903c.5372353.5372353 1.3698902.593729 1.9727268.1752663z" fill="#d5d3d4" data-original="#d5d3d4"></path></g><g><path d="m18.4634342 32.5909729c-.4184647.6028366-.361927 1.4355354.1753082 1.9727707l1.7975464 1.7975464c.5372353.5372353 1.3698902.5937309 1.9727268.1752663z" fill="#d5d3d4" data-original="#d5d3d4"></path></g><g><path d="m23.4193535 37.5468941c-.4184647.6028366-.361969 1.4354897.1752663 1.9727249l1.7975464 1.7975464c.5372353.5372353 1.3698883.5937309 1.9727249.1752663z" fill="#d5d3d4" data-original="#d5d3d4"></path></g></g><g><g><path d="m19.3218689 27.563921-1.7975578-1.7975578c-.604002-.6040001-.604002-1.5832806 0-2.1872826l.0000019-.0000019c.604002-.604002 1.5832825-.604002 2.1872845 0l1.7975578 1.7975578c.604002.6040001.604002 1.5832806 0 2.1872826l-.0000019.0000019c-.604002.604002-1.5832825.604002-2.1872845 0z" fill="#e7e7e7" data-original="#e7e7e7"></path></g><g><path d="m24.2777557 32.5198059-1.7975578-1.7975559c-.604002-.604002-.604002-1.5832825 0-2.1872845l.0000019-.0000019c.604002-.604002 1.5832825-.604002 2.1872826 0l1.7975578 1.7975578c.604002.604002.604002 1.5832825 0 2.1872845h-.0000019c-.604002.6040039-1.5832825.6040039-2.1872826 0z" fill="#e7e7e7" data-original="#e7e7e7"></path></g><g><path d="m29.2336407 37.4756927-1.7975578-1.7975578c-.604002-.6040001-.604002-1.5832825 0-2.1872826l.0000019-.0000038c.604002-.6040001 1.5832825-.6040001 2.1872845 0l1.7975578 1.7975578c.604002.6040039.604002 1.5832825 0 2.1872864h-.0000019c-.6040021.604004-1.5832825.604004-2.1872845 0z" fill="#e7e7e7" data-original="#e7e7e7"></path></g><g><path d="m36.115654 10.7701359-1.7975578-1.7975579c-.6040001-.604002-.6040001-1.583282 0-2.1872835l.0000038-.0000024c.6040001-.6040015 1.5832825-.6040015 2.1872826 0l1.7975578 1.7975574c.6040039.604002.6040039 1.5832825 0 2.1872835v.0000029c-.6040039.604001-1.5832825.604001-2.1872864 0z" fill="#e7e7e7" data-original="#e7e7e7"></path></g><g><path d="m46.0274277 20.6819077-1.7975578-1.7975578c-.6040039-.604002-.6040039-1.5832825 0-2.1872845v-.0000019c.6040039-.604002 1.5832825-.604002 2.1872864 0l1.7975578 1.7975578c.6040001.604002.6040001 1.5832825 0 2.1872845l-.0000038.0000019c-.6040002.604002-1.5832825.604002-2.1872826 0z" fill="#e7e7e7" data-original="#e7e7e7"></path></g></g><g><g><path d="m17.3918552 23.7412205c-.4610615.606245-.4210968 1.471571.132452 2.0251198l1.7975903 1.7975903c.5535488.5535488 1.4188747.5935135 2.0251198.132452z" fill="#d5d3d4" data-original="#d5d3d4"></path></g><g><path d="m22.3477306 28.6970959c-.4610615.6062469-.4210529 1.4716148.1324959 2.0251637l1.7975464 1.7975464c.5535488.5535507 1.4188747.5935135 2.0251198.1324539z" fill="#d5d3d4" data-original="#d5d3d4"></path></g><g><path d="m27.3036499 33.6530151c-.4610615.6062469-.4210968 1.4715729.132452 2.0251198l1.7975464 1.7975464c.5535507.5535507 1.4188747.5935135 2.0251217.1324539z" fill="#d5d3d4" data-original="#d5d3d4"></path></g><g><path d="m34.1326866 7.0123014c-.4086266.6018867-.3479424 1.4269018.1854057 1.9602537l1.7975922 1.7975893c.5333481.5333509 1.3583641.5940313 1.9602509.1854086z" fill="#d5d3d4" data-original="#d5d3d4"></path></g><g><path d="m44.0444794 16.9240971c-.4086227.6018867-.3479424 1.4269009.1854095 1.9602528l1.7975464 1.7975464c.5333519.5333519 1.3583679.5940323 1.9602547.1854076z" fill="#d5d3d4" data-original="#d5d3d4"></path></g></g><g><circle cx="33.54" cy="21.536" fill="#e7e7e7" r="3.75" data-original="#e7e7e7"></circle></g><g><circle cx="33.54" cy="21.536" fill="#e7e7e7" r="3.75" data-original="#e7e7e7"></circle></g><g><path d="m36.1715889 21.1891193-.2434731.2434731c-1.2203865 1.2203884-3.199028 1.2203884-4.4194164 0l-.1706581-.1706562c-.5904102-.5904102-1.6129532-.1118813-1.5172043.717577.1211796 1.049757.6858425 2.0569382 1.6999626 2.7200642 1.1895466.7778358 2.786581.7921028 3.9878101.0324383 1.162159-.7349529 1.7470627-1.9129944 1.7709961-3.1029205.0114289-.568163-.7061843-.8418084-1.1080169-.4399759z" fill="#d5d3d4" data-original="#d5d3d4"></path></g></g></g></svg>